<svg xmlns="http://www.w3.org/2000/svg" version="1.1" xmlns:xlink="http://www.w3.org/1999/xlink" width="1000" height="1000"><g clip-path="url(#SvgjsClipPath1079)"><rect width="1000" height="1000" fill="#ffffff"></rect><g transform="matrix(0.87890625,0,0,0.87890625,50,50)"><svg xmlns="http://www.w3.org/2000/svg" version="1.1" xmlns:xlink="http://www.w3.org/1999/xlink" width="1024" height="1024"><svg xmlns="http://www.w3.org/2000/svg" width="1024" height="1024"><path fill="#FEB45C" d="M378.066 181.059c9.46 5.33 12.548 11.782 15.934 21.941v31h236v-34c7.64-15.281 7.64-15.281 15.563-18.938 7.132-2.224 16.153-2.57 23 .625 3.296 1.997 5.89 4.413 8.437 7.313l2.188 2.438c3.977 5.622 4.193 11.473 4.437 18.125l.117 2.478c.214 4.935.275 9.86.267 14.799l-.004 3.507L684 233l2.677.018c8.384.058 16.768.13 25.152.218 4.308.044 8.617.083 12.926.11 4.17.027 8.338.067 12.507.117 1.58.017 3.16.028 4.738.035 23.496.103 45.012 6.662 62.172 23.479 13.782 14.258 20.94 32.937 20.96 52.654l.006 2.243c.005 2.475.004 4.95.002 7.426l.01 5.383c.008 4.928.01 9.857.01 14.785.002 5.316.01 10.633.016 15.95.014 11.624.02 23.248.024 34.872l.012 21.78c.012 20.107.022 40.214.026 60.322v7.806l.002 7.84v3.928c.005 21 .022 42 .046 63 .023 21.568.036 43.135.037 64.703 0 12.107.007 24.213.025 36.32.015 10.31.02 20.619.012 30.929-.004 5.257-.003 10.514.011 15.772.013 4.82.012 9.639 0 14.458-.002 1.737 0 3.474.01 5.211.108 22.953-5.668 43.044-21.756 60.164-17.961 16.946-38.896 22.647-63.127 22.597-1.587 0-3.174.002-4.76.003-4.349.002-8.698-.002-13.046-.007-4.694-.004-9.388-.003-14.082-.002-8.129 0-16.257-.003-24.386-.008-11.752-.008-23.505-.011-35.258-.012-19.068-.002-38.136-.01-57.205-.019-18.522-.009-37.043-.016-55.565-.02h-3.46l-17.187-.005c-47.516-.01-95.033-.028-142.549-.05v2l-2-1a63.097 63.097 0 0 0-4.188-.131l-2.662-.012-2.93.001-3.08-.01c-2.216-.008-4.432-.013-6.648-.017-3.52-.007-7.041-.023-10.562-.041-10.014-.052-20.028-.1-30.042-.116-6.123-.01-12.246-.04-18.37-.081-2.322-.012-4.644-.018-6.966-.015-16.224.011-32.457-.39-47.052-8.39l-1.986-1.039c-5.292-2.844-9.973-6.217-14.514-10.149l-2.398-1.777c-12.406-10.599-20.053-27.441-21.854-43.465-.17-2.443-.279-4.881-.364-7.329l-.114-2.951c-.53-15.812-.42-31.643-.415-47.462 0-4.966-.006-9.932-.01-14.897-.009-9.696-.011-19.392-.012-29.088 0-7.885-.003-15.77-.006-23.655-.009-22.406-.013-44.812-.012-67.218v-7.301c0-19.557-.01-39.114-.023-58.672-.015-20.13-.022-40.261-.02-60.392 0-11.283-.003-22.565-.014-33.848-.01-9.598-.011-19.196-.005-28.794.004-4.89.004-9.779-.005-14.668a3642.9 3642.9 0 0 1 .002-13.462c.002-1.612 0-3.223-.005-4.834-.028-8.341.258-16.552 1.161-24.85l.241-2.22c2.06-17.25 10.15-32.321 22.853-44.117l1.992-1.902c4.435-4.12 8.75-7.36 14.16-10.09 2.014-.986 2.014-.986 3.848-3.008 13.45-5.308 27.296-6.456 41.555-6.512l4.917-.054c4.264-.047 8.528-.077 12.793-.104 4.371-.03 8.743-.076 13.114-.121 8.54-.085 17.08-.153 25.621-.209-.01-.801-.02-1.602-.032-2.427-.042-3.67-.067-7.34-.093-11.01-.017-1.26-.034-2.52-.05-3.819-.058-10.968.616-20.244 8.175-28.744 8.868-7.219 20.047-9.746 31.066-5.941ZM249 291c-4.269 6.483-5.124 12.559-5.129 20.253l-.005 2.192c-.005 2.431-.002 4.862 0 7.293l-.007 5.273c-.006 4.836-.006 9.672-.004 14.508 0 5.213-.006 10.427-.01 15.64-.009 10.218-.011 20.435-.012 30.652 0 8.306-.003 16.611-.006 24.917-.009 23.544-.013 47.087-.012 70.631V490.06c0 20.598-.01 41.196-.023 61.794a88095.45 88095.45 0 0 0-.02 63.438c0 11.874-.003 23.747-.014 35.62-.01 10.111-.011 20.222-.005 30.333.004 5.157.004 10.315-.005 15.473-.008 4.725-.006 9.45.002 14.175.002 1.706 0 3.412-.005 5.118-.372 18.85-.372 18.85 8.255 34.99 7.865 6.89 16.484 8.314 26.67 8.254l2.508.01c2.763.008 5.525.003 8.287-.003l6.016.011c5.502.01 11.003.008 16.505.004 5.937-.002 11.873.007 17.81.014 11.627.013 23.254.015 34.88.012a43703.065 43703.065 0 0 1 38.565.01c19.026.008 38.053.012 57.08.008h2.172l10.903-.003h2.187l4.378-.002c22.713-.005 45.425.003 68.137.021a79015.006 79015.006 0 0 0 86.774.026c10.114 0 20.227.006 30.34.016 11.503.012 23.005.014 34.507.002 5.869-.006 11.737-.007 17.606.005 5.373.01 10.746.007 16.12-.007 1.942-.002 3.885 0 5.827.008 18.262.335 18.262.335 33.728-8.386 8.854-10.51 8.291-22.222 8.254-35.239a4819.82 4819.82 0 0 0 .007-19.788c-.004-5.217.003-10.434.008-15.65.01-10.215.007-20.43.002-30.644-.005-8.3-.006-16.602-.003-24.903v-3.58l.003-7.201c.005-22.506-.001-45.011-.012-67.516-.009-19.312-.007-38.624.002-57.936a89576.634 89576.634 0 0 0 .007-74.453l-.001-3.565c-.002-8.292 0-16.584.006-24.876.005-10.103.004-20.207-.007-30.311-.005-5.155-.007-10.31 0-15.466.005-4.72.002-9.439-.009-14.158-.002-1.707 0-3.414.004-5.121.006-2.322 0-4.643-.01-6.965v-3.907c-.581-8.625-3.094-16.117-9.626-21.971-7.248-5.796-13.886-6.88-23.007-6.864h-2.16c-2.338 0-4.675.008-7.013.016l-4.884.005c-4.271.003-8.542.013-12.813.024-4.364.01-8.728.015-13.092.02-8.552.01-17.104.028-25.656.049.01.614.02 1.228.032 1.86.042 2.839.067 5.677.093 8.515.017.966.034 1.931.05 2.926.071 10.513-.965 19.628-8.175 27.699-6.171 5.228-12.984 7.365-21 6.875-4.265-.539-7.585-1.823-11.309-3.938-1.846-1.09-1.846-1.09-4.691-1.937-1.059-1.809-1.059-1.809-2-4l-1.035-2.035-1.028-2.027-1.035-2.036c-4.907-10.346-2.387-18.004-2.902-31.902H394l-1 24c-2.462 9.848-4.84 15.487-13.613 20.809-7.552 3.77-15.524 4.043-23.551 1.507-6.402-2.78-10.998-7.807-14.211-13.941-1.238-4.705-1.759-9.358-1.941-14.21l-.127-3.224-.12-3.316-.13-3.387A3381.75 3381.75 0 0 1 339 281c-9.51-.07-19.02-.123-28.53-.155-4.417-.016-8.834-.037-13.25-.071-4.267-.033-8.533-.05-12.8-.059a736.286 736.286 0 0 1-4.87-.032c-12.38-.12-21.784.54-30.55 10.317Z"></path><path fill="#FEB45C" d="M670.75 405.688c5.934 6.098 10.19 13.002 10.563 21.625-.398 13.158-8.934 20.46-17.708 29.25l-2.04 2.05a3258.336 3258.336 0 0 1-4.228 4.235 2403.209 2403.209 0 0 0-6.483 6.523 8077.06 8077.06 0 0 1-4.124 4.129l-1.957 1.979-1.811 1.802-1.592 1.596C640 480 640 480 638 480l-.688 1.688c-1.688 2.974-3.779 5.032-6.312 7.312h-2l-1 3c-1.577 1.554-1.577 1.554-3.58 3.207-4.27 3.625-8.207 7.484-12.13 11.477l-4.27 4.306c-2.214 2.24-4.427 4.48-6.637 6.723-2.152 2.182-4.31 4.358-6.469 6.533l-2.014 2.055-1.862 1.873-1.636 1.658C588 531 588 531 586 531l-.681 1.705c-1.709 2.974-3.837 4.758-6.417 7.022-8.094 7.232-15.69 14.952-23.34 22.648l-4.333 4.348c-2.64 2.647-5.278 5.296-7.914 7.946l-1.716 1.717a228.031 228.031 0 0 0-3.078 3.166c-1.138 1.184-2.325 2.322-3.521 3.448h-2v2c-1.42 1.393-1.42 1.393-3.413 3.033-4.95 4.212-9.45 8.793-13.985 13.444l-5.391 5.468c-2.8 2.843-5.596 5.687-8.379 8.545-2.711 2.778-5.438 5.54-8.168 8.3l-2.485 2.572c-5.917 5.944-12.04 10.643-20.429 12.267-18.586-.449-28.729-13.42-41.04-25.734-1.862-1.859-3.73-3.71-5.6-5.561-1.186-1.182-2.37-2.365-3.555-3.549l-1.695-1.673C415 598.23 415 598.23 415 596l-4-2v-2l-1.684-.703c-2.932-1.642-4.98-3.684-7.372-6.047l-1.485-1.46c-1.616-1.591-3.223-3.19-4.83-4.79l-3.377-3.35c-2.36-2.343-4.716-4.69-7.069-7.041-2.998-2.993-6.012-5.97-9.03-8.943a1575.452 1575.452 0 0 1-6.973-6.934 613.184 613.184 0 0 0-3.329-3.29c-8.248-8.106-15.114-16.039-16.163-28.005.133-7.174 2.638-14.124 7.562-19.375 6.4-5.74 13.71-8.525 22.273-8.316 11.116 1.14 17.994 8.761 25.477 16.254l2.749 2.744c8.306 8.296 8.306 8.296 12.293 12.333l1.476 1.49c1.338 1.35 2.674 2.704 4.01 4.058 2.45 2.436 2.45 2.436 5.288 4.563L433 537v2l1.808.82c2.17 1.168 3.547 2.304 5.26 4.053l1.73 1.75 1.83 1.88 1.913 1.936c2.012 2.036 4.017 4.079 6.022 6.124 2.64 2.694 5.289 5.382 7.94 8.066l1.838 1.887 1.72 1.74 1.504 1.536c1.542 1.449 1.542 1.449 4.435 2.208l1.437-1.469c2.14-2.182 4.29-4.357 6.438-6.531l2.262-2.313 2.168-2.187 2-2.031C485 555 485 555 487 555l1-3h2l.688-1.688c1.688-2.974 3.779-5.032 6.312-7.312h2v-2h2v-2h2l.688-1.688c1.688-2.974 3.779-5.032 6.312-7.312h2v-2c1.627-1.727 3.288-3.36 5-5a14400.663 14400.663 0 0 1 14.946-15.001c1.617-1.622 3.232-3.244 4.847-4.867 2.345-2.358 4.694-4.712 7.043-7.066l2.163-2.178c3.713-3.713 7.487-7.268 11.519-10.633 4.59-3.886 8.474-8.455 12.42-12.974 2.275-2.517 4.652-4.891 7.062-7.281 1.453-1.474 2.905-2.95 4.355-4.426l4.832-4.887c.82-.835 1.639-1.671 2.483-2.533l2.373-2.392 2.157-2.189C595 445 595 445 597 445v-2h2l.75-1.734c1.443-2.616 3.132-4.414 5.25-6.516l2.125-2.14C609 431 609 431 611 431l1-3a140.693 140.693 0 0 1 5-5l2.688-2.813C622 418 622 418 624 418v-2c1.355-1.332 1.355-1.332 3.188-2.813 2.269-1.865 4.24-3.648 6.25-5.812 10.996-10.191 25.137-9.159 37.312-1.688Z"></path><path fill="#FCAA4D" d="m797 785 2 1c-16.924 15.331-36.322 19.166-58.502 19.12-1.587 0-3.174.002-4.76.003-4.349.002-8.698-.002-13.046-.007-4.694-.004-9.388-.003-14.082-.002-8.129 0-16.257-.003-24.386-.008-11.752-.008-23.505-.011-35.258-.012-19.068-.002-38.136-.01-57.205-.019-18.522-.009-37.043-.016-55.565-.02h-3.46l-17.187-.005c-47.516-.01-95.033-.028-142.549-.05v2l-2-1a64.084 64.084 0 0 0-4.215-.138c-.884-.005-1.769-.01-2.68-.017l-2.948-.003-3.1-.015c-2.23-.01-4.458-.02-6.687-.026a3713.74 3713.74 0 0 1-10.61-.053c-10.058-.062-20.116-.116-30.174-.15-6.149-.02-12.298-.056-18.447-.1-2.337-.014-4.673-.023-7.01-.026-30.703-.046-30.703-.046-36.129-5.472l3.438.438c1.52.193 3.04.379 4.562.562l1.917.245c5.308.643 10.511.9 15.855.892l2.543.008c2.8.008 5.6.008 8.4.009l6.098.013c5.577.012 11.155.018 16.732.022 6.019.006 12.037.018 18.056.029 14.53.024 29.06.039 43.589.052l12.316.011a152133.485 152133.485 0 0 0 94.244.07h2.223c23.774.012 47.548.043 71.321.085a47736.737 47736.737 0 0 0 83.77.077h2.064c10.928.004 21.856.025 32.784.051 10.996.026 21.992.034 32.988.023 5.951-.005 11.901-.002 17.852.022 5.458.023 10.915.022 16.372.003 1.965-.003 3.93.003 5.894.018 19.901.144 39.94-3.447 54.982-17.63Z"></path><path fill="#F8A047" d="m273.572 278.757 2.185-.006c2.36-.003 4.72.007 7.079.019h4.94c3.438.002 6.876.01 10.313.024 4.416.017 8.831.021 13.246.02 3.394 0 6.788.006 10.181.013l4.888.006c2.267.002 4.534.011 6.8.022l3.914.011C340 279 340 279 341 280c.16 2.373.26 4.721.316 7.098l.063 2.148c.066 2.272.125 4.544.184 6.816l.13 4.612c.108 3.775.209 7.55.307 11.326l-2-1c-1.392-5.603-1.37-11.504-1.625-17.25l-.156-3.047-.133-2.906-.124-2.646C338 283 338 283 339 281c-9.51.061-19.02.139-28.53.236-4.417.044-8.834.084-13.25.11-4.267.027-8.533.067-12.8.117-1.623.017-3.246.028-4.87.035-10.675.045-19.719.15-28.01 7.76-5.683 6.432-6.664 13.668-6.669 21.995l-.005 2.192c-.005 2.431-.002 4.862 0 7.293l-.007 5.273c-.006 4.836-.006 9.672-.004 14.508 0 5.213-.006 10.427-.01 15.64a40381.1 40381.1 0 0 0-.012 30.652c0 8.306-.003 16.611-.006 24.917-.009 23.544-.013 47.087-.012 70.631V490.06c0 20.598-.01 41.196-.023 61.794a88095.45 88095.45 0 0 0-.02 63.438c0 11.874-.003 23.747-.014 35.62-.01 10.111-.011 20.222-.005 30.333.004 5.157.004 10.315-.005 15.473-.008 4.725-.006 9.45.002 14.175.002 1.706 0 3.412-.005 5.118-.368 18.845-.368 18.845 8.255 34.99 9.514 8.192 22.144 7.483 34 8v1c-3.625.147-7.248.235-10.875.312l-3.07.127c-8.327.134-15.01-1.65-21.2-7.448-6.938-7.465-8.976-14.348-8.99-24.39l-.006-2.24c-.007-2.485-.007-4.97-.006-7.454l-.011-5.389c-.01-4.942-.014-9.885-.017-14.827-.004-5.328-.013-10.656-.022-15.984-.02-12.869-.03-25.738-.039-38.606-.004-6.059-.01-12.118-.015-18.176a124551.26 124551.26 0 0 1-.046-80.023c-.008-21.048-.033-42.097-.066-63.145-.033-21.605-.05-43.21-.054-64.815-.002-12.133-.011-24.265-.036-36.398-.022-10.33-.03-20.66-.02-30.99.004-5.271.002-10.542-.017-15.813-.018-4.826-.017-9.652-.001-14.478.002-1.745-.002-3.49-.014-5.235-.065-10.146-.002-18.669 6.818-26.778 7.768-6.504 13.738-9.504 24.259-9.493Z"></path><path fill="#FAA850" d="M198 428h1c1.103 185.805 1.103 185.805 1.123 246.905.002 3.212.006 6.425.01 9.637.005 4.915.006 9.83.001 14.746 0 1.73 0 3.461.002 5.192.009 7.9-.014 15.68-1.136 23.52h-1c-.923-7.035-1.141-13.905-1.127-20.996l-.005-3.58c-.003-3.258-.002-6.515.001-9.773.003-3.521-.001-7.043-.004-10.564-.004-6.888-.003-13.776 0-20.664.002-5.596.002-11.192.001-16.788v-2.416l-.001-4.86c-.003-15.17 0-30.341.006-45.512.004-13.023.003-26.046-.001-39.068a81519.835 81519.835 0 0 1-.003-52.62c0-5.593 0-11.187-.003-16.78-.003-6.81-.002-13.62.003-20.431a6111.2 6111.2 0 0 0 0-10.427c-.002-3.763.001-7.525.006-11.287l-.007-3.35.008-3.042v-2.633C197 431 197 431 198 428Z"></path><path fill="#F9A448" d="M393 279h239v2c-2.778.785-5.242 1.125-8.125 1.126l-2.48.008-2.708-.007-2.89.005c-3.202.004-6.405 0-9.608-.003l-6.879.006c-6.233.004-12.466.002-18.7 0-6.513-.003-13.026 0-19.54 0-11.637.003-23.275 0-34.913-.006-10.56-.004-21.118-.003-31.678.001-12.256.006-24.512.008-36.769.005-6.49-.002-12.98-.002-19.47.001-6.099.003-12.197.001-18.295-.005-2.244 0-4.488 0-6.732.002-3.051.002-6.103-.001-9.154-.006l-2.721.007c-6.11-.02-6.11-.02-8.338-1.134v-2Z"></path><path fill="#FCA94D" d="M388 191c3 3 3 3 6 12v31h236l1 2H392l-1-33-2-7a171.203 171.203 0 0 1-1-5Z"></path><path fill="#FBA84C" d="M377.61 180.895C379.5 182 379.5 182 382 184c-2 1-2 1-3.848.441l-2.214-.879c-7.31-2.537-13.69-2.226-20.934.458-3.004 1.47-4.878 3.428-7.004 5.98l-2.188 2.375c-7.974 11.549-4.52 33.716-4.812 43.625h-78c2.886-2.886 4.977-2.278 9.02-2.319l2.188-.03c2.392-.031 4.783-.048 7.175-.065 1.656-.019 3.312-.038 4.969-.059 4.363-.051 8.726-.09 13.089-.128 4.45-.04 8.901-.091 13.352-.141 8.736-.097 17.471-.181 26.207-.258-.01-.801-.02-1.602-.032-2.427-.042-3.67-.067-7.34-.093-11.01-.017-1.26-.034-2.52-.05-3.819-.058-10.968.616-20.244 8.175-28.744 8.558-6.966 19.843-9.796 30.61-6.105Z"></path><path fill="#FCAC4F" d="m411 592 5 1 1 3a280.711 280.711 0 0 0 5 5l5 6c2.718 2.86 5.54 5.473 8.563 8 2.881 2.427 5.1 5.04 7.437 8l2.75 2.188L448 627v2c2.073 1.11 3.886 1.974 6.188 2.5l1.812.5 1 2c3.53 1.177 6.465 1.242 10.188 1.313l3.855.113c8.348-.898 13.632-5.52 19.3-11.38l1.984-2c2.068-2.09 4.12-4.192 6.173-6.296a4573.51 4573.51 0 0 1 4.227-4.281c3.435-3.48 6.857-6.97 10.273-10.469l2 1c-4.215 4.34-8.447 8.662-12.695 12.97a965.681 965.681 0 0 0-4.306 4.408 949.32 949.32 0 0 1-6.241 6.352l-1.899 1.977c-5.385 5.389-11.537 9.457-19.109 10.922-18.586-.449-28.729-13.42-41.04-25.734-1.862-1.859-3.73-3.71-5.6-5.561-1.186-1.182-2.37-2.365-3.555-3.549l-1.695-1.673C415 598.23 415 598.23 415 596l-4-2v-2Z"></path><path fill="#FAA84B" d="M261 236c-3.217 2.145-5.575 2.72-9.313 3.625-10.756 2.992-20.194 8.295-28.234 16.125C222 257 222 257 220 257l-.742 1.691c-1.493 2.74-3.371 4.86-5.383 7.247C207.449 274.3 204.37 284.103 201 294h-1c0-13.902 9.28-26.749 18.375-36.563L221 255l1.992-1.902c4.435-4.12 8.75-7.36 14.16-10.09 2.014-.986 2.014-.986 3.848-3.008 2.242-.816 2.242-.816 4.875-1.563l2.617-.753L251 237l2.117-.586c2.638-.58 5.193-.475 7.883-.414Z"></path><path fill="#FCAA4C" d="M670.75 405.688c6.891 7.082 10.447 14.391 10.516 24.261C681 432 681 432 679 435l-.078-2.781c-.481-10.414-1.642-16.351-9.235-23.594-6.26-5.192-12.015-6.029-19.972-5.887-4.02.388-7.03 1.61-10.715 3.262l-3 1.188-2 .812c9.746-11.632 24.912-9.577 36.75-2.313Z"></path><path fill="#F9A54A" d="M198 729h1l.196 1.721C201.604 751.17 207.198 765.634 220 782h-3a76.256 76.256 0 0 1-5.313-6.563l-1.482-2.037c-4.705-6.715-7.699-13.628-10.205-21.4-.264-.808-.529-1.616-.8-2.45-1.821-6.698-1.376-13.667-1.2-20.55Z"></path><path fill="#FBAA4F" d="m352 528 2 3a672.975 672.975 0 0 0 3.938 5.563l2.09 2.94c1.903 2.674 1.903 2.674 4.972 4.497v2h2v2l1.754.727c2.688 1.523 4.201 3.285 6.183 5.648 2.817 3.28 5.65 5.96 9.063 8.625v2c-3.905-1.592-6.57-4.264-9.5-7.2-.518-.512-1.035-1.026-1.568-1.555a998.447 998.447 0 0 1-3.268-3.265 810.914 810.914 0 0 0-4.976-4.931 2903.387 2903.387 0 0 1-3.188-3.186l-1.49-1.462c-4.478-4.538-8.01-8.844-8.01-15.401Z"></path><path fill="#FAAB4F" d="m572 542 3 1a7848.521 7848.521 0 0 1-14.789 14.899 3332.77 3332.77 0 0 0-5.031 5.072c-2.406 2.43-4.818 4.853-7.23 7.275l-2.274 2.304-2.123 2.124-1.864 1.877C540 578 540 578 537 579v-3l2.313-1.375c2.834-1.428 2.834-1.428 4.187-4.125 1.5-2.5 1.5-2.5 3.703-3.777 3.525-2.171 6.166-4.838 9.047-7.785l1.64-1.643c2.911-2.88 2.911-2.88 5.11-6.295h2v-2a349.422 349.422 0 0 1 5-4l2-3Z"></path><path fill="#FBA94E" d="M244 731h1l.227 2.09c1.116 7.976 3.403 14.147 9.628 19.508 9.48 6.49 21.101 5.92 32.145 6.402v1c-3.625.147-7.248.235-10.875.313l-3.07.126c-8.328.134-15.007-1.651-21.2-7.447-5.852-6.301-8.227-11.402-7.96-20.015L244 731Z"></path><path fill="#FDAC4F" d="m678 436 1 3c-2.662 4.764-6.154 8.449-10.008 12.273l-1.717 1.723c-1.19 1.191-2.381 2.38-3.575 3.565a1205.268 1205.268 0 0 0-5.477 5.49l-3.48 3.472-1.655 1.667C649.23 471 649.23 471 647 471c1.136-3.407 2.641-4.489 5.383-6.68a51.267 51.267 0 0 0 8.43-8.695c1.923-2.308 3.772-4.021 6.062-5.938 4.539-3.868 8.443-8.323 11.125-13.687Z"></path><path fill="#FCAD51" d="M608 434v2h-2v2l-2.375 1.875c-2.676 1.859-2.676 1.859-3.625 4.188-1 1.937-1 1.937-3.313 3.312-2.74 1.658-4.273 3.453-6.238 5.945-4.157 4.819-9.451 8.776-14.449 12.68 1.452-3.332 3.285-5.542 5.844-8.11l2.277-2.285 2.379-2.355 2.379-2.402 2.277-2.27 2.088-2.08C595 445 595 445 597 445v-2h2l.688-1.688c1.816-3.2 4.362-7.312 8.312-7.312ZM387 568l4 2v2l1.766.738c2.624 1.482 4.058 3.138 5.984 5.45 3.325 3.875 6.824 7.183 10.781 10.402L411 590v2c-3.639-1.537-5.982-3.724-8.766-6.5l-2.695-2.688L396.75 580l-2.836-2.813-2.68-2.687-2.462-2.469C387 570 387 570 387 568Z"></path><path fill="#FBA64A" d="m220 783 4 1v2c.553.26 1.106.52 1.676.79 2.628 1.369 5.039 2.95 7.512 4.585A84.647 84.647 0 0 0 248 799c-3.71 1.237-5.094.3-8.498-1.351l-2.127-1.087-2.166-1.092c-5.786-3.025-10.82-6.58-15.209-11.47v-1Z"></path><path fill="#FBA94E" d="m779 741 1 2a359.337 359.337 0 0 1-4 6l-1.688 2.563c-3.202 3.375-6.934 5.818-11.312 7.437-2.281-.367-2.281-.367-4-1 10-5 10-5 12.266-6.055 2.325-1.267 2.664-2.539 3.734-4.945a372.785 372.785 0 0 1 4-6Z"></path><path fill="#FCAC4F" d="M646 472c-1.44 3.362-3.248 5.592-6 8h-2l-.688 1.688c-1.671 2.944-3.865 4.994-6.312 7.312l-2-1 1.875-1.75c2.186-2.072 2.186-2.072 3.125-4.438l1-1.812a93.365 93.365 0 0 1 4-1l1-3c3.543-4 3.543-4 6-4Z"></path><path fill="#FDAB4D" d="m364 497 2 1-1.355 1.066c-4.407 3.6-7.51 7.188-10.645 11.934l-2 3c.158-6.33 3.673-9.799 8-14a117.397 117.397 0 0 1 4-3Z"></path><path fill="#FCAC51" d="M622 418h2c-.188 1.813-.188 1.813-1 4a99.185 99.185 0 0 1-5 3l-2 3-2-1a8986.59 8986.59 0 0 1 5.371-6.152c.854-.97 1.716-1.935 2.629-2.848Z"></path><path fill="#FCAB4D" d="m523 591 2 1-9 9c0-4.31 2.167-5.897 5-9l2-1Z"></path><path fill="#F7B05A" d="M288 232h12v1h-12v-1Z"></path><path fill="#F8B05A" d="M301 232h10v1h-10v-1Z"></path><path fill="#F7AF5A" d="M274 232h10v1h-10v-1Z"></path><path fill="#F8B15A" d="M312 232h8v1h-8v-1Z"></path><path fill="#F7AF59" d="M376 806h7v1h-7v-1Z"></path><path fill="#F7AE59" d="M501 232h7v1h-7v-1Z"></path><path fill="#F7AE57" d="M491 232h7v1h-7v-1Z"></path><path fill="#F6AE5A" d="M717 232h6v1h-6v-1Z"></path><path fill="#F9B15A" d="M697 232h6v1h-6v-1Z"></path><path fill="#F7AD58" d="M520 232h6v1h-6v-1Z"></path><path fill="#F7AE59" d="M456 232h6v1h-6v-1Z"></path><path fill="#F6AE59" d="M488 806h5v1h-5v-1Z"></path><path fill="#F7AE58" d="M466 806h5v1h-5v-1Z"></path><path fill="#F8AE59" d="M432 806h5v1h-5v-1Z"></path><path fill="#F6AF59" d="M416 806h5v1h-5v-1Z"></path><path fill="#F6AF5A" d="M392 806h5v1h-5v-1Z"></path><path fill="#F5AE59" d="M304 806h5v1h-5v-1Z"></path><path fill="#F8AF5C" d="M467 639h5v1h-5v-1Z"></path><path fill="#F7B05A" d="M709 232h5v1h-5v-1Z"></path><path fill="#FAB15A" d="M691 232h5v1h-5v-1Z"></path><path fill="#F7AD58" d="M533 232h5v1h-5v-1Z"></path><path fill="#F8AE58" d="M477 232h5v1h-5v-1Z"></path><path fill="#F7AF58" d="M450 232h5v1h-5v-1Z"></path><path fill="#F8AF59" d="M431 232h5v1h-5v-1Z"></path><path fill="#F3AD5A" d="m737 806 4 1Z"></path><path fill="#F5AD58" d="m705 806 4 1Z"></path><path fill="#F7AF59" d="m633 806 4 1Z"></path><path fill="#F7AE58" d="m595 806 4 1Z"></path><path fill="#F6AF59" d="m577 806 4 1Z"></path><path fill="#F6AD58" d="m545 806 4 1Z"></path><path fill="#F6AF59" d="m352 806 4 1Z"></path><path fill="#F6AE58" d="m299 806 4 1Z"></path><path fill="#F5AD5A" d="m273 806 4 1Z"></path><path fill="#F7AF5A" d="m728 232 4 1Z"></path><path fill="#F9B05A" d="m600 232 4 1Z"></path><path fill="#F6AE59" d="m538 806 3 1Z"></path><path fill="#F8AF59" d="m450 806 3 1Z"></path><path fill="#F6AF5B" d="m402 806 3 1Z"></path><path fill="#F6AF59" d="m344 806 3 1Z"></path><path fill="#F7B15E" d="m461 638 2 2h-2v-2Z"></path><path fill="#F7AF5A" d="m724 232 3 1Z"></path><path fill="#F9AF59" d="m569 232 3 1Z"></path><path fill="#F8AF58" d="m560 232 3 1Z"></path><path fill="#F7AE59" d="m553 232 3 1Z"></path><path fill="#F7AE58" d="m487 232 3 1Z"></path><path fill="#F6AF59" d="m483 232 3 1ZM472 232l3 1Z"></path><path fill="#F9B15A" d="m416 232 3 1Z"></path><path fill="#FAB15A" d="m403 232 3 1Z"></path><path fill="#FBB25A" d="m332 232 3 1Z"></path><path fill="#F1AC59" d="m747 806 2 1Z"></path><path fill="#F4AE5A" d="m731 806 2 1Z"></path><path fill="#F4AC5B" d="m723 806 2 1Z"></path><path fill="#F4AE5A" d="m720 806 2 1Z"></path><path fill="#F8AF59" d="m627 806 2 1Z"></path><path fill="#F6AD58" d="m603 806 2 1Z"></path><path fill="#F7AE58" d="m600 806 2 1Z"></path><path fill="#F6AD58" d="m571 806 2 1Z"></path><path fill="#F7AD59" d="m523 806 2 1Z"></path><path fill="#F7AF59" d="m515 806 2 1Z"></path><path fill="#F7AE58" d="m507 806 2 1Z"></path><path fill="#F6AE5A" d="m499 806 2 1Z"></path><path fill="#F7B05A" d="m480 806 2 1ZM473 806l2 1Z"></path><path fill="#F6AF5A" d="m427 806 2 1Z"></path><path fill="#F7AF58" d="m411 806 2 1Z"></path><path fill="#F5AE5B" d="m368 806 2 1Z"></path><path fill="#F6AF5A" d="m363 806 2 1Z"></path><path fill="#F4AE5A" d="m339 806 2 1Z"></path><path fill="#F5AF59" d="m336 806 2 1ZM331 806l2 1Z"></path><path fill="#F4AF58" d="m315 806 2 1Z"></path><path fill="#F0AA5C" d="m760 805 2 1Z"></path><path fill="#F6B15E" d="m464 639 2 1Z"></path><path fill="#F7AF59" d="m733 232 2 1Z"></path><path fill="#F9B35B" d="m685 232 2 1Z"></path><path fill="#F9AF59" d="m592 232 2 1Z"></path><path fill="#F9B159" d="m589 232 2 1Z"></path><path fill="#F7B05B" d="m584 232 2 1Z"></path><path fill="#F9B059" d="m576 232 2 1Z"></path><path fill="#F8B059" d="m573 232 2 1Z"></path><path fill="#F8AE58" d="m557 232 2 1Z"></path><path fill="#F8AE5A" d="m545 232 2 1Z"></path><path fill="#F7AD57" d="m528 232 2 1Z"></path><path fill="#F7AF58" d="m509 232 2 1Z"></path><path fill="#F7B059" d="m464 232 2 1Z"></path><path fill="#F8B05A" d="m440 232 2 1Z"></path><path fill="#F9B159" d="m410 232 2 1Z"></path><path fill="#F9B15A" d="m400 232 2 1Z"></path><path fill="#FCB35A" d="m336 232 2 1Z"></path><path fill="#FBB059" d="m325 232 2 1Z"></path><path fill="#F9AF5B" d="m285 232 2 1Z"></path><path fill="#F5AF5C" d="m269 232 2 1Z"></path><path fill="#E8A85B" d="m647 179 2 1Z"></path></svg></svg></g></g><defs><clipPath id="SvgjsClipPath1079"><rect width="1000" height="1000" x="0" y="0" rx="450" ry="450"></rect></clipPath></defs></svg>